<?xml version="1.0" encoding="UTF-8" standalone="no"?>
<!-- Created with Inkscape (http://www.inkscape.org/) -->

<!-- The font the Mutagen logo uses is Cantarell. -->

<svg
   xmlns:dc="http://purl.org/dc/elements/1.1/"
   xmlns:cc="http://creativecommons.org/ns#"
   xmlns:rdf="http://www.w3.org/1999/02/22-rdf-syntax-ns#"
   xmlns:svg="http://www.w3.org/2000/svg"
   xmlns="http://www.w3.org/2000/svg"
   xmlns:sodipodi="http://sodipodi.sourceforge.net/DTD/sodipodi-0.dtd"
   xmlns:inkscape="http://www.inkscape.org/namespaces/inkscape"
   width="190"
   height="190"
   version="1.1"
   id="svg6"
   sodipodi:docname="logo-small.svg"
   inkscape:version="0.92.4 (5da689c313, 2019-01-14)">
  <metadata
     id="metadata12">
    <rdf:RDF>
      <cc:Work
         rdf:about="">
        <dc:format>image/svg+xml</dc:format>
        <dc:type
           rdf:resource="http://purl.org/dc/dcmitype/StillImage" />
        <dc:title />
      </cc:Work>
    </rdf:RDF>
  </metadata>
  <defs
     id="defs10">
    <filter
       style="color-interpolation-filters:sRGB;"
       inkscape:label="Blur"
       id="filter834">
      <feGaussianBlur
         stdDeviation="2 2"
         result="blur"
         id="feGaussianBlur832" />
    </filter>
    <filter
       style="color-interpolation-filters:sRGB;"
       inkscape:label="Blur"
       id="filter838">
      <feGaussianBlur
         stdDeviation="2 2"
         result="blur"
         id="feGaussianBlur836" />
    </filter>
  </defs>
  <sodipodi:namedview
     pagecolor="#ffffff"
     bordercolor="#666666"
     borderopacity="1"
     objecttolerance="10"
     gridtolerance="10"
     guidetolerance="10"
     inkscape:pageopacity="0"
     inkscape:pageshadow="2"
     inkscape:window-width="960"
     inkscape:window-height="966"
     id="namedview8"
     showgrid="false"
     fit-margin-top="0"
     fit-margin-left="0"
     fit-margin-right="0"
     fit-margin-bottom="0"
     showguides="true"
     inkscape:guide-bbox="true"
     inkscape:zoom="1.3444188"
     inkscape:cx="147.48412"
     inkscape:cy="173.85345"
     inkscape:window-x="960"
     inkscape:window-y="25"
     inkscape:window-maximized="0"
     inkscape:current-layer="svg6"
     inkscape:pagecheckerboard="true">
    <sodipodi:guide
       position="213.47515,-81.075927"
       orientation="0,1"
       id="guide822"
       inkscape:locked="false" />
  </sodipodi:namedview>
  <path
     style="fill:#4d4d4d"
     d="M 45.039062,22.259766 C 39.75788,23.577296 31.660556,19.896949 28.751953,26.527344 21.953032,58.712608 15.709472,91.063738 9.1230469,123.3125 c 9.1458331,0 18.2916671,0 27.4375001,0 2.938345,-11.7699 4.062592,-25.169049 7.820312,-35.951172 7.03184,2.475568 14.552006,-0.295131 21.753907,0.552734 4.676967,-0.11751 9.472113,0.99032 14.070312,-0.265624 5.076186,26.783112 10.791917,53.471662 16.048828,80.232422 6.191874,-1.62246 15.078574,2.34748 19.095704,-4.61328 3.99645,-13.9518 8.36382,-27.87509 12.87891,-41.70117 4.91814,15.32221 9.83489,30.64486 14.7539,45.96679 6.233,-0.11209 15.95779,1.97314 19.09375,-5.26367 4.49972,-27.5864 10.93883,-55.05228 16.18387,-82.59082 -0.35339,-4.539593 6.47927,-14.961899 -1.82645,-12.99121 -7.6569,0 -15.3138,0 -22.9707,0 -2.71,12.291858 -4.638,24.748564 -7.61719,36.98242 -7.71733,-2.09846 -15.74888,0.51314 -23.58398,-0.75976 -4.01633,-0.0296 -8.15634,0.9457 -12.08594,-0.20899 C 104.71432,75.839114 99.211435,48.985479 93.732422,22.126953 87.543618,23.730398 78.656246,19.777579 74.650391,26.736328 70.574566,40.655648 66.349342,54.60673 61.773438,68.398438 56.789871,52.885366 51.805084,37.372687 46.822266,21.859375 l -0.975707,0.21908 z m 84.222658,43.041015 c -3.84783,-0.240285 -10.03841,0.221255 -9.8711,5.496094 -1.71128,4.988658 -7.28159,11.985507 -1.53515,16.462891 4.77164,1.84118 10.00186,-0.105845 14.89258,1.285156 4.9678,0.558923 10.51124,-4.62372 7.18359,-9.503906 -1.96774,-5.432051 -2.81535,-14.236802 -10.66992,-13.740235 z M 64.214844,102.93164 c -4.783995,1.30833 -12.207084,-2.29189 -15.027344,2.86914 -1.062009,4.47285 2.821754,8.15469 3.125,12.53906 1.878077,5.75227 8.682769,8.19894 14.003906,5.6543 6.512115,-2.68469 5.798711,-11.13623 8.644532,-16.36719 -0.589584,-4.81893 -7.191283,-4.56397 -10.746094,-4.69531 z"
     id="m-squiggle-3"
     inkscape:connector-curvature="0" />
  <path
     style="fill:#4d4d4d"
     d="m 174.74609,80.345703 c -6.7488,0.97785 -4.58081,9.388868 -6.61718,13.849609 0.54417,4.692792 -5.32703,11.188928 -0.0937,14.820308 10.43203,4.19476 24.73367,-5.32536 21.66015,-17.044917 -1.49827,-6.700182 -8.06185,-11.880488 -14.94922,-11.625 z M 13.958984,80.511719 C 1.3751767,80.06446 -5.0776802,98.912463 5.2949219,106.18164 c 4.0662595,4.19648 14.0059741,5.06674 14.9355471,-2.33203 1.451064,-7.796585 3.130582,-15.559433 4.666015,-23.343751 -3.64581,0.0019 -7.291778,-0.02954 -10.9375,0.0059 z m 23.742188,1.59375 C 35.865199,91.235662 34.04107,100.36909 32.207031,109.5 c 19.783203,0 39.566407,0 59.34961,0 -1.918672,-9.666527 -3.838442,-19.332838 -5.753907,-29 -15.925781,0 -31.851562,0 -47.777343,0 l -0.197951,0.980212 z m 61.654297,0.783203 c 1.759751,8.870446 3.522161,17.740368 5.279301,26.611328 15.78125,0 31.5625,0 47.34375,0 1.93845,-9.666607 3.87472,-19.333651 5.81445,-29 -19.63737,0 -39.27474,0 -58.912111,0 0.158203,0.796224 0.316407,1.592448 0.47461,2.388672 z"
     id="redline-7"
     inkscape:connector-curvature="0" />
  <path
     id="redline"
     style="fill:#999999"
     d="M 14.46875,86.5 C 9.90612,86.5 6,90.4374 6,95 c 0,4.44668 3.712975,8.30694 8.125,8.5 l 3.4375,-17 z m 28.46875,0 -3.40625,17 H 84.25 l -3.375,-17 z m 63.25,0 3.375,17 h 37.5 l 3.40625,-17 z m 69.6875,0 -3.4375,17 h 3.09375 C 180.09388,103.5 184,99.5626 184,95 c 0,-4.4466 -3.71298,-8.3069 -8.125,-8.5 z"
     inkscape:connector-curvature="0" />
  <path
     id="m-squiggle"
     style="fill:#ececec"
     d="m 34.328125,28.5625 -17.875,88.75 h 15.21875 l 9.5625,-47.8125 4.59375,12.5625 h 14.03125 l -17.1875,-53.5 z m 46.3125,0 -16.8125,53.5 h 14.15625 L 82.578125,69.5 101.07813,161.4375 h 8.28125 l 16.4375,-52.375 h -14.21875 l -4.15625,11.4375 -0.625,-3.1875 h 0.25 l -18.125005,-88.75 z m 44.656255,42.96875 -3.84375,10.53125 h 13.31249 l -3.84375,-10.53125 z m 33.06249,1.15625 -9.59375,47.8125 -4.15625,-11.4375 h -14.09375 l 16.8125,52.375 h 8.34375 l 17.875,-88.75 z m -102.718745,36.375 3.4375,9.40625 h 5.625 l 3.4375,-9.40625 z"
     inkscape:connector-curvature="0" />
</svg>
